# xmcd
# Copyright (C) 1995-1998 Ti Kan
#
# Track frame offsets:
#       150
#       9187
#       23185
#       38382
#       58326
#       66815
#       81262
#       90068
#       127433
#       146066
#       156410
#
# Disc length: 2398 seconds
#
# Revision: 0
# Processed by: cddbd v1.5.2PL0 Copyright (c) Steve Scherf et al.
# Submitted via: CD-Transfer v1.0
#
DISCID=8c095c0b
DTITLE=Neutral Milk Hotel - Jef Magnum
DYEAR=98
DGENRE=
TTITLE0=King Of Carrot Flowers, The (Pt.1)
TTITLE1=King Of Carrot Flowers, The (Pt.2)
TTITLE2=In The Aeriplane Over The Sea
TTITLE3=Two-Headed Boy
TTITLE4=Fool, The
TTITLE5=Holland, 1945
TTITLE6=Communist Daughter
TTITLE7=Oh Comely
TTITLE8=Ghost
TTITLE9=Untitled
TTITLE10=Two-Headed Boy (Pt.2)
EXTD=
EXTT0=
EXTT1=
EXTT2=
EXTT3=
EXTT4=
EXTT5=
EXTT6=
EXTT7=
EXTT8=
EXTT9=
EXTT10=
PLAYORDER=
